<svg width="34" height="37" viewBox="0 0 34 37" fill="none" xmlns="http://www.w3.org/2000/svg">
<path opacity="0.3" fill-rule="evenodd" clip-rule="evenodd" d="M1.57115 29.7726C0.151168 31.4649 0.371901 33.9879 2.06419 35.4079C3.75648 36.8279 6.27952 36.6072 7.69951 34.9149L16.9695 23.8673L26.2395 34.9149C27.6595 36.6072 30.1825 36.8279 31.8748 35.4079C33.5671 33.9879 33.7879 31.4649 32.3678 29.7726L22.1911 17.6445L31.4826 6.57124C32.9027 4.87895 32.6819 2.35592 30.9896 0.935915C29.2973 -0.484092 26.7743 -0.263356 25.3543 1.42894L16.9695 11.4216L8.5847 1.42896C7.16472 -0.263341 4.64168 -0.484077 2.94939 0.93593C1.25709 2.35594 1.03636 4.87896 2.45637 6.57126L11.7479 17.6444L1.57115 29.7726Z" fill="#161300"/>
</svg>
