<svg width="46" height="47" viewBox="0 0 46 47" fill="none" xmlns="http://www.w3.org/2000/svg">
<path opacity="0.3" fill-rule="evenodd" clip-rule="evenodd" d="M41.5366 19.5366H19.1346L40.0436 7.46477C41.9568 6.3602 42.6123 3.91384 41.5077 2.00067C40.4031 0.0874973 37.9568 -0.568003 36.0436 0.536566L4.00066 19.0366C3.62201 19.2552 3.29262 19.5264 3.01639 19.8356C2.50347 20.0465 2.04406 20.3609 1.66414 20.7528C1.21717 21.074 0.829641 21.493 0.536565 22.0007C-0.568003 23.9138 0.0874993 26.3602 2.00066 27.4648L34.0436 45.9648C35.9568 47.0693 38.4031 46.4138 39.5077 44.5007C40.6123 42.5875 39.9568 40.1411 38.0436 39.0366L18.125 27.5366H41.5366C43.7457 27.5366 45.5366 25.7457 45.5366 23.5366C45.5366 21.3274 43.7457 19.5366 41.5366 19.5366Z" fill="#161300"/>
</svg>
