<svg width="51" height="41" viewBox="0 0 51 41" fill="none" xmlns="http://www.w3.org/2000/svg">
<path d="M1.21511 23.4366C-0.00829613 21.94 0.213162 19.735 1.70975 18.5116L23.3882 0.790301C24.8848 -0.433101 27.0898 -0.211643 28.3132 1.28494C29.5366 2.78153 29.3151 4.98651 27.8185 6.20991L6.14008 23.9312C4.64349 25.1546 2.43851 24.9332 1.21511 23.4366Z" fill="#A19A75"/>
<path d="M49.5783 24.3349C48.3007 25.7855 46.0891 25.9257 44.6385 24.6481L23.6264 6.14149C22.1759 4.86388 22.0357 2.65224 23.3133 1.20166C24.5909 -0.24892 26.8025 -0.389137 28.2531 0.888476L49.2651 19.3951C50.7157 20.6727 50.8559 22.8843 49.5783 24.3349Z" fill="#A19A75"/>
<path d="M8.99994 17.5751H13.4999V36.5751H36.9999V17.5751H40.9999V35.5751C40.9999 38.3366 38.7614 40.5751 35.9999 40.5751H13.9999C11.2385 40.5751 8.99994 38.3366 8.99994 35.5751V17.5751Z" fill="#A19A75"/>
</svg>
